<?xml version="1.0" encoding="utf-8"?>
<!-- Generator: Adobe Illustrator 15.0.2, SVG Export Plug-In . SVG Version: 6.00 Build 0)  -->
<!DOCTYPE svg PUBLIC "-//W3C//DTD SVG 1.1//EN" "http://www.w3.org/Graphics/SVG/1.1/DTD/svg11.dtd">
<svg version="1.1" xmlns="http://www.w3.org/2000/svg" xmlns:xlink="http://www.w3.org/1999/xlink" x="0px" y="0px" width="88px"
	 height="116px" viewBox="0 0 88 116" enable-background="new 0 0 88 116" xml:space="preserve">
<g id="guide_x28_s_x29_">
</g>
<g id="Layer_2">
	<g>
		<linearGradient id="SVGID_1_" gradientUnits="userSpaceOnUse" x1="43.9995" y1="0.5" x2="43.9995" y2="55.0005">
			<stop  offset="0" style="stop-color:#FFFFFF"/>
			<stop  offset="1" style="stop-color:#E8E8E8"/>
		</linearGradient>
		<path fill="url(#SVGID_1_)" d="M5.001,55C2.519,55,0.5,52.395,0.5,49.191V6.307C0.5,3.105,2.519,0.5,5.001,0.5H83
			c2.481,0,4.5,2.605,4.5,5.807v42.884C87.5,52.395,85.481,55,83,55H5.001z"/>
		<path d="M83,1c2.206,0,4,2.381,4,5.307v42.884c0,2.927-1.794,5.309-4,5.309H5.001C2.795,54.5,1,52.118,1,49.191V6.307
			C1,3.381,2.795,1,5.001,1H83 M83,0H5.001C2.239,0,0,2.824,0,6.307v42.884C0,52.678,2.239,55.5,5.001,55.5H83
			c2.762,0,5-2.822,5-6.309V6.307C88,2.824,85.762,0,83,0L83,0z"/>
	</g>
	<text transform="matrix(1 0 0 1 3.4849 35.5)" font-family="'MyriadPro-Regular'" font-size="8">0000-0000-0000-0000</text>
	<text transform="matrix(1 0 0 1 4 23.5005)"><tspan x="0" y="0" font-family="'Helvetica'" font-size="14">P</tspan><tspan x="8.498" y="0" font-family="'Helvetica'" font-size="14">a</tspan><tspan x="16.004" y="0" font-family="'Helvetica'" font-size="14">y Bill</tspan></text>
	<linearGradient id="SVGID_2_" gradientUnits="userSpaceOnUse" x1="74" y1="39.5" x2="74" y2="51.5">
		<stop  offset="0" style="stop-color:#E4F5FD"/>
		<stop  offset="1" style="stop-color:#88D4E9"/>
	</linearGradient>
	<rect x="64" y="39.5" fill="url(#SVGID_2_)" stroke="#000000" stroke-miterlimit="10" width="20" height="12"/>
	<g>
		<linearGradient id="SVGID_3_" gradientUnits="userSpaceOnUse" x1="43.9995" y1="60.5" x2="43.9995" y2="115">
			<stop  offset="0" style="stop-color:#F2F5CD"/>
			<stop  offset="1" style="stop-color:#FDF04F"/>
		</linearGradient>
		<path fill="url(#SVGID_3_)" d="M5.001,115c-2.482,0-4.501-2.605-4.501-5.809V66.307c0-3.202,2.019-5.807,4.501-5.807H83
			c2.481,0,4.5,2.604,4.5,5.807v42.885c0,3.203-2.019,5.809-4.5,5.809H5.001z"/>
		<path d="M83,61c2.206,0,4,2.381,4,5.307v42.885c0,2.927-1.794,5.309-4,5.309H5.001C2.795,114.5,1,112.118,1,109.191V66.307
			C1,63.381,2.795,61,5.001,61H83 M83,60H5.001C2.239,60,0,62.824,0,66.307v42.885c0,3.486,2.239,6.309,5.001,6.309H83
			c2.762,0,5-2.822,5-6.309V66.307C88,62.824,85.762,60,83,60L83,60z"/>
	</g>
	<text transform="matrix(1 0 0 1 3.4849 95.5)" font-family="'MyriadPro-Regular'" font-size="8">0000-0000-0000-0000</text>
	<text transform="matrix(1 0 0 1 4 83.5)"><tspan x="0" y="0" font-family="'Helvetica'" font-size="14">P</tspan><tspan x="8.498" y="0" font-family="'Helvetica'" font-size="14">a</tspan><tspan x="16.004" y="0" font-family="'Helvetica'" font-size="14">y Bill</tspan></text>
	<linearGradient id="SVGID_4_" gradientUnits="userSpaceOnUse" x1="74" y1="99.5" x2="74" y2="111.5">
		<stop  offset="0" style="stop-color:#E4F5FD"/>
		<stop  offset="1" style="stop-color:#88D4E9"/>
	</linearGradient>
	<rect x="64" y="99.5" fill="url(#SVGID_4_)" stroke="#000000" stroke-miterlimit="10" width="20" height="12"/>
</g>
</svg>
