<?xml version="1.0" encoding="utf-8"?>
<!-- Generator: Adobe Illustrator 15.0.2, SVG Export Plug-In . SVG Version: 6.00 Build 0)  -->
<!DOCTYPE svg PUBLIC "-//W3C//DTD SVG 1.1//EN" "http://www.w3.org/Graphics/SVG/1.1/DTD/svg11.dtd">
<svg version="1.1" xmlns="http://www.w3.org/2000/svg" xmlns:xlink="http://www.w3.org/1999/xlink" x="0px" y="0px" width="72px"
	 height="72px" viewBox="0 0 72 72" enable-background="new 0 0 72 72" xml:space="preserve">
<g id="Layer_1" display="none">
	<g display="inline">
		<path fill="#016699" d="M53.465,36.732L39.26,29.102c-1.946-1.046-4.372-0.315-5.417,1.631l-7.749,14.425
			c-1.045,1.946-0.315,4.371,1.631,5.417l0.44,0.236L3.143,97.39c-1.045,1.946-0.315,4.372,1.631,5.417l6.276,3.372
			c1.946,1.045,4.372,0.315,5.417-1.631l25.022-46.579l0.44,0.236c1.945,1.045,4.371,0.315,5.416-1.631l7.75-14.426
			C56.141,40.203,55.41,37.777,53.465,36.732z M12.943,102.655l-6.277-3.372l25.022-46.58l6.276,3.372L12.943,102.655z
			 M43.822,54.682l-0.44-0.237l-3.523-1.893l-6.277-3.372l-3.524-1.893l-0.44-0.237l7.75-14.425l14.204,7.631L43.822,54.682z"/>
		<path fill="#016699" d="M63.921,22.152c0.462-8.296-1.49-14.428,6.062-19.672c0.803-0.557,1-0.901,0.723-1.05
			c-2.504-1.345-43.63,13.057-29.446,28.75c2.717,3.006,5.159,4.984,7.339,6.155C59.063,41.957,63.537,29.018,63.921,22.152z
			 M42.739,21.41c2.176-5.105,10.935-10.092,18.097-13.124c-0.854,2.978-0.843,6.054-0.832,9.082
			c0.005,1.472,0.011,2.995-0.077,4.562c-0.185,3.312-1.406,7.393-3.226,9.783c0.383-2.704,0.171-5.978-0.714-8.004
			c-1.408,2.264-4.112,2.899-2.937-6.685c-5.713,10.96-10.247,8.619-5.661,2.351c-3.004,1.79-4.486,3.263-5.048,4.698
			C42.174,23.043,42.413,22.174,42.739,21.41z"/>
	</g>
</g>
<g id="Layer_2">
	<path fill="#016699" d="M33.85,0H0v45.287V72h17.165h35.64H72V37.667V14.184V0H33.85z M68,4v13.878
		c-3.543,2.542-7.874,4.056-12.567,4.056C44.756,21.934,35.912,14.18,34.167,4H68z M4,68V41.473l11.333-7.806l12.5,12.167l7.5-3.333
		l7.5,6.833h9.834C51.667,62.767,33.039,63.306,29.65,68H4z M68,68H53.042c1.122-17.002,3.291-18.667,3.291-18.667h4L68,41.666V68z"
		/>
</g>
</svg>
