<?xml version="1.0" encoding="utf-8"?>
<!-- Generator: Adobe Illustrator 15.0.2, SVG Export Plug-In . SVG Version: 6.00 Build 0)  -->
<!DOCTYPE svg PUBLIC "-//W3C//DTD SVG 1.1//EN" "http://www.w3.org/Graphics/SVG/1.1/DTD/svg11.dtd">
<svg version="1.1" id="Layer_1" xmlns="http://www.w3.org/2000/svg" xmlns:xlink="http://www.w3.org/1999/xlink" x="0px" y="0px"
	 width="72px" height="72px" viewBox="0 0 72 72" enable-background="new 0 0 72 72" xml:space="preserve">
<path fill="#016699" d="M38.741,7.107c-2.529,3.922-3.622,9.053-0.179,12.86c3.396,3.758,10.054,4.413,13.072,8.535
	c0.912,1.25,1.385,2.73,0.929,4.148c-0.103,0.311-0.669,2.044-1.288,2.674c-0.197,0.198-0.62,0.26-1,0.26
	c-0.308,0-0.587-0.041-0.692-0.083c-3.503-1.377-5.139-1.788-5.808-1.788c-0.843,0-0.148,0.65,0.286,0.833
	c2.806,1.186,5.612,2.375,8.421,3.562c2.548,1.077,4.377,1.977,6.441,3.653c3.243,2.634,6.639,6.603,3.625,10.177
	c-0.146,0.176-0.525,0.64-0.927,1.005c-0.171,0.153-0.528,0.207-0.894,0.207c-0.428,0-0.865-0.073-1.028-0.148
	c-0.128-0.058-5.599-2.301-6.001-2.487c-0.855-0.398-1.479-0.565-1.848-0.565c-0.823,0-0.371,0.828,1.629,1.741
	c2.436,1.114,9.301,4.824,10.57,5.405c0.566,0.257,1.881,1.231,2.057,1.407c2.267,2.295,3.671,5.4,0.202,7.505
	c-3.621,2.2-8.438,2.5-13.1,2.5c-1.746,0-3.471-0.042-5.104-0.042c-0.185,0-0.368,0.001-0.55,0.002
	c-4.04,0.029-8.195,0.118-12.371,0.118c-7.74,0-15.55-0.308-22.849-1.882c-4.352-0.937-8.45-2.88-8.727-7.107
	c-0.103-1.566,0.525-3.144,1.242-4.123c0.636-0.873,1.532-1.185,2.209-1.347c-0.83-0.475-1.625-1.062-1.919-1.829
	c-0.423-1.109-0.771-3.155-0.572-4.155c0.256-1.298,2.562-4.543,4.675-4.543c0.025,0,0.05,0,0.074,0.001
	c-2.727-1.494-0.114-6.261,1.64-7.577c0.369-0.274,1.037-0.8,1.729-1.18c0.437-0.238,1.861-0.601,3.032-0.698
	c-0.762-0.687-1.347-1.628-1.545-2.471c-0.244-0.583-0.335-1.218-0.305-1.869c0.071-1.487,3.4-12.556,11.946-17.262
	C29.793,10.351,34.383,8.798,38.741,7.107 M47.542,0L37.378,3.946c-0.889,0.345-1.787,0.684-2.687,1.023
	c-3.587,1.354-7.295,2.754-10.682,4.62c-9.697,5.34-13.61,17.449-13.734,20.062c-0.04,0.851,0.048,1.666,0.262,2.436
	c-0.684,0.409-1.273,0.854-1.647,1.135l-0.15,0.113c-2.208,1.657-4.427,5.421-4.18,8.628c0.003,0.037,0.006,0.075,0.01,0.113
	c-1.937,1.633-3.244,3.954-3.536,5.438c-0.384,1.938,0.242,4.674,0.726,5.945c0.021,0.056,0.044,0.111,0.067,0.164
	c-1.268,1.778-1.944,4.085-1.807,6.185c0.234,3.583,2.423,8.267,11.522,10.227C19.574,71.767,28.002,72,35.186,72
	c2.535,0,5.076-0.033,7.535-0.064c1.636-0.021,3.258-0.042,4.863-0.053l0.522-0.003c0.786,0,1.595,0.011,2.418,0.021
	c0.884,0.011,1.782,0.021,2.686,0.021c5.215,0,10.646-0.367,15.041-3.039c2.704-1.641,3.502-3.726,3.694-5.187
	c0.325-2.47-0.784-5.073-3.21-7.529c-0.46-0.459-2.116-1.693-3.132-2.154c-0.037-0.018-0.085-0.04-0.141-0.067
	c1.771-2.19,4.529-7.689-4.197-14.778c-1.958-1.591-3.767-2.603-5.996-3.605c0.234-0.509,0.48-1.129,0.729-1.893
	c0.749-2.329,0.247-4.846-1.403-7.11c-2.131-2.908-5.346-4.4-8.182-5.717c-2.055-0.955-3.997-1.856-5.117-3.097
	c-2.813-3.11-0.316-7.565,0.516-8.856L47.542,0L47.542,0z"/>
</svg>
