<?xml version="1.0" encoding="utf-8"?>
<!-- Generator: Adobe Illustrator 15.0.2, SVG Export Plug-In . SVG Version: 6.00 Build 0)  -->
<!DOCTYPE svg PUBLIC "-//W3C//DTD SVG 1.1//EN" "http://www.w3.org/Graphics/SVG/1.1/DTD/svg11.dtd">
<svg version="1.1" id="Layer_1" xmlns="http://www.w3.org/2000/svg" xmlns:xlink="http://www.w3.org/1999/xlink" x="0px" y="0px"
	 width="396.295px" height="72px" viewBox="0 0 396.295 72" enable-background="new 0 0 396.295 72" xml:space="preserve">
<g>
	<path fill="#006699" d="M10.811,67.948c-2.534-2.636-3.447-6.992-3.447-12.77V27.193H0.001v36.178c0,4.044,2.77,7.466,6.59,8.629
		h13.382C15.818,72,12.939,70.38,10.811,67.948z"/>
	<path fill="#006699" d="M28.971,65.184V72h11.55C35.99,71.201,32.002,68.796,28.971,65.184z"/>
	<path fill="#006699" d="M29.736,27.193H16.08v27.683c0,6.08,1.723,9.525,6.689,9.525c0.5,0,3.934-0.025,5.548-0.037
		c-3.379-4.437-5.402-10.481-5.402-17.495C22.864,38.479,25.519,31.751,29.736,27.193z"/>
	<path fill="#006699" d="M47.282,72h12.634v-8.58C57.409,67.492,53.007,70.989,47.282,72z"/>
	<path fill="#006699" d="M59.499,53.963c0.305-1.216,0.405-2.432,0.405-3.85V41.6c0-1.114-0.101-2.636-0.405-3.751
		c-1.317-5.674-6.183-10.335-12.87-10.335c-9.222,0-14.693,8.105-14.693,18.951c0,9.93,4.863,18.139,14.491,18.139
		C52.405,64.604,57.877,60.652,59.499,53.963z"/>
	<path fill="#006699" d="M68.793,0.356v19.984v1.295V72h0.259c3.231-0.983,5.71-3.584,6.398-6.81V21.636v-1.295V7.234
		C74.745,3.924,72.15,1.278,68.793,0.356z"/>
	<path fill="#006699" d="M7.364,20.342v-8.957l8.716-2.735v11.692v0.062h14.247v1.232v4.943c2.267-2.265,4.941-3.937,7.864-4.943
		c2.126-0.732,4.387-1.113,6.715-1.113c2.56,0,4.835,0.412,6.812,1.113c3.814,1.354,6.516,3.781,7.985,6.386h0.201v-6.386v-1.295V0
		H9.455C4.234,0,0,4.054,0,9.054v11.288v0.062h7.363L7.364,20.342L7.364,20.342z"/>
</g>
<g>
	<path fill="#777777" d="M98.768,28.305v2.244H95.93v11.848c0,0.615,0.104,1.028,0.313,1.236c0.209,0.21,0.61,0.313,1.205,0.313
		c0.55,0,0.99-0.043,1.32-0.132v2.311c-0.858,0.153-1.606,0.229-2.244,0.229c-1.078,0-1.903-0.235-2.475-0.709
		c-0.572-0.473-0.858-1.148-0.858-2.029V30.549h-2.343v-2.244h2.343v-4.752h2.739v4.752H98.768L98.768,28.305z"/>
	<path fill="#777777" d="M104.51,21.54v3.465h-2.772V21.54H104.51z M104.51,28.503v17.292h-2.739V28.503H104.51z"/>
	<path fill="#777777" d="M109.195,28.305h2.541v2.442c0.748-1.034,1.535-1.782,2.359-2.244c0.825-0.462,1.81-0.693,2.954-0.693
		c2.134,0,3.685,0.881,4.653,2.641c0.814-0.968,1.617-1.649,2.409-2.046s1.76-0.595,2.904-0.595c1.606,0,2.843,0.413,3.712,1.237
		c0.869,0.825,1.304,2.02,1.304,3.581v12.969h-2.772V33.684c0-1.1-0.281-1.951-0.841-2.558c-0.561-0.604-1.348-0.907-2.36-0.907
		c-1.122,0-2.079,0.44-2.871,1.32s-1.188,1.946-1.188,3.2v10.856h-2.772V33.683c0-1.1-0.28-1.951-0.841-2.558
		c-0.561-0.604-1.348-0.907-2.359-0.907c-1.122,0-2.079,0.44-2.871,1.32s-1.188,1.946-1.188,3.2v10.856h-2.772L109.195,28.305
		L109.195,28.305z"/>
	<path fill="#777777" d="M143.746,35.301v2.376h-7.854v-2.376H143.746z"/>
	<path fill="#777777" d="M161.698,21.54v24.057h-2.442V43.32c-0.748,1.078-1.557,1.854-2.426,2.326
		c-0.869,0.474-1.896,0.709-3.085,0.709c-2.332,0-4.169-0.841-5.511-2.523s-2.013-3.987-2.013-6.913c0-2.75,0.677-4.955,2.03-6.617
		c1.353-1.66,3.151-2.491,5.396-2.491c2.376,0,4.146,0.892,5.313,2.674v-8.942h2.738V21.54z M154.108,30.384
		c-1.497,0-2.706,0.616-3.63,1.849c-0.924,1.231-1.386,2.85-1.386,4.852c0,2.024,0.462,3.646,1.386,4.867
		c0.924,1.221,2.145,1.831,3.663,1.831c1.452,0,2.618-0.604,3.498-1.814c0.88-1.21,1.32-2.815,1.32-4.817
		c0-2.067-0.44-3.713-1.32-4.935C156.759,30.994,155.582,30.384,154.108,30.384z"/>
	<path fill="#777777" d="M172.687,27.81c2.486,0,4.416,0.82,5.792,2.459c1.375,1.64,2.062,3.954,2.062,6.946
		c0,2.838-0.699,5.071-2.096,6.699s-3.306,2.441-5.726,2.441c-2.464,0-4.384-0.819-5.758-2.459c-1.375-1.639-2.062-3.91-2.062-6.813
		c0-2.904,0.693-5.176,2.079-6.814C168.364,28.63,170.267,27.81,172.687,27.81z M172.72,30.351c-1.54,0-2.75,0.601-3.63,1.8
		c-0.88,1.198-1.32,2.844-1.32,4.934s0.44,3.734,1.32,4.934c0.88,1.2,2.09,1.799,3.63,1.799c1.518,0,2.723-0.6,3.614-1.799
		c0.891-1.198,1.336-2.811,1.336-4.835c0-2.134-0.435-3.806-1.304-5.016S174.282,30.351,172.72,30.351z"/>
	<path fill="#777777" d="M198.987,37.875H186.25c0.022,1.584,0.33,2.816,0.924,3.695c0.945,1.497,2.332,2.244,4.158,2.244
		c2.244,0,3.75-1.154,4.521-3.466h2.772c-0.352,1.894-1.177,3.366-2.475,4.423s-2.937,1.584-4.917,1.584
		c-2.42,0-4.334-0.819-5.742-2.458c-1.408-1.64-2.112-3.878-2.112-6.717c0-2.838,0.721-5.108,2.162-6.813s3.36-2.559,5.759-2.559
		c1.627,0,3.063,0.407,4.306,1.222c1.243,0.813,2.14,1.926,2.689,3.333C198.757,33.574,198.987,35.411,198.987,37.875z
		 M186.316,35.631h9.702c0.021-0.044,0.033-0.109,0.033-0.198c0-1.43-0.462-2.634-1.386-3.612c-0.924-0.979-2.057-1.47-3.399-1.47
		c-1.386,0-2.53,0.479-3.432,1.437C186.931,32.743,186.425,34.025,186.316,35.631z"/>
	<path fill="#777777" d="M210.67,30.714c-1.849,0.044-3.233,0.474-4.158,1.287c-0.924,0.813-1.386,2.354-1.386,4.62v8.976h-2.771
		V28.305h2.541v3.136c0.791-1.299,1.555-2.229,2.293-2.788c0.736-0.562,1.545-0.843,2.426-0.843c0.242,0,0.594,0.033,1.056,0.1
		V30.714L210.67,30.714z"/>
	<path fill="#777777" d="M225.354,28.305v2.442l-10.263,12.439h10.726v2.409h-14.059v-2.475l10.329-12.408h-9.636v-2.409
		L225.354,28.305L225.354,28.305z"/>
	<path fill="#777777" d="M229.019,21.54h2.738v9.107c1.254-1.893,3.036-2.839,5.346-2.839c2.289,0,4.092,0.814,5.412,2.442
		s1.98,3.839,1.98,6.633c0,2.86-0.682,5.153-2.047,6.881c-1.363,1.728-3.189,2.591-5.478,2.591c-2.354,0-4.18-0.99-5.478-2.971
		v2.211h-2.475V21.54L229.019,21.54z M236.575,30.384c-1.452,0-2.618,0.61-3.498,1.831c-0.881,1.222-1.32,2.844-1.32,4.868
		s0.439,3.646,1.32,4.867c0.88,1.221,2.046,1.831,3.498,1.831c1.496,0,2.711-0.61,3.646-1.831c0.935-1.222,1.403-2.812,1.403-4.77
		c0-2.066-0.457-3.718-1.37-4.949S238.114,30.384,236.575,30.384z"/>
	<path fill="#777777" d="M247.729,33.42c0.131-3.74,2.441-5.61,6.93-5.61c2.133,0,3.75,0.401,4.851,1.205s1.649,1.976,1.649,3.515
		v10.164c0,0.901,0.496,1.354,1.486,1.354c0.197,0,0.396-0.021,0.594-0.065v2.078c-0.771,0.198-1.397,0.298-1.881,0.298
		c-0.881,0-1.547-0.203-1.998-0.61s-0.73-1.05-0.84-1.931c-1.849,1.693-3.807,2.541-5.875,2.541c-1.738,0-3.119-0.463-4.142-1.387
		s-1.534-2.167-1.534-3.729c0-0.506,0.049-0.968,0.148-1.386c0.099-0.417,0.207-0.786,0.33-1.105
		c0.121-0.318,0.334-0.615,0.644-0.891c0.31-0.276,0.565-0.5,0.776-0.678c0.207-0.176,0.561-0.347,1.056-0.512
		s0.875-0.285,1.14-0.362c0.264-0.076,0.726-0.171,1.385-0.28c0.66-0.109,1.145-0.188,1.453-0.23
		c0.308-0.043,0.857-0.121,1.649-0.23c1.078-0.133,1.826-0.342,2.244-0.627c0.417-0.285,0.627-0.716,0.627-1.287v-0.727
		c0-0.836-0.335-1.474-1.006-1.914c-0.671-0.438-1.623-0.66-2.854-0.66c-1.275,0-2.244,0.248-2.904,0.742
		c-0.659,0.495-1.045,1.271-1.154,2.327h-2.773V33.42z M253.239,43.946c1.519,0,2.762-0.4,3.729-1.204
		c0.968-0.803,1.452-1.667,1.452-2.591v-3.103c-0.55,0.264-1.381,0.484-2.491,0.66s-2.073,0.33-2.888,0.462s-1.551,0.445-2.211,0.94
		s-0.99,1.183-0.99,2.062s0.297,1.562,0.891,2.046C251.325,43.705,252.161,43.946,253.239,43.946z"/>
	<path fill="#777777" d="M279.476,34.112h-2.773c-0.176-1.209-0.615-2.14-1.319-2.788c-0.705-0.648-1.628-0.975-2.772-0.975
		c-1.496,0-2.668,0.61-3.515,1.832s-1.271,2.909-1.271,5.065c0,2.046,0.429,3.651,1.287,4.817c0.857,1.167,2.045,1.748,3.563,1.748
		c2.354,0,3.763-1.386,4.224-4.157h2.772c-0.177,2.111-0.88,3.757-2.112,4.934s-2.882,1.767-4.949,1.767
		c-2.354,0-4.219-0.819-5.594-2.459c-1.375-1.639-2.062-3.854-2.062-6.648c0-2.86,0.697-5.148,2.096-6.864
		c1.396-1.716,3.262-2.574,5.594-2.574c2.002,0,3.602,0.539,4.801,1.617S279.319,32.066,279.476,34.112z"/>
	<path fill="#777777" d="M293.731,33.618c0-1.21-0.369-2.079-1.105-2.607c-0.736-0.527-1.557-0.792-2.458-0.792
		c-1.408,0-2.541,0.533-3.399,1.602c-0.857,1.067-1.287,2.479-1.287,4.239v9.537h-2.738V21.54h2.738v9.141
		c0.814-1.056,1.635-1.799,2.459-2.228s1.854-0.645,3.084-0.645c1.672,0,2.998,0.425,3.978,1.271c0.979,0.848,1.47,1.997,1.47,3.448
		v13.067h-2.74V33.618L293.731,33.618z"/>
	<path fill="#777777" d="M315.38,37.875h-12.738c0.022,1.584,0.33,2.816,0.924,3.695c0.945,1.497,2.332,2.244,4.158,2.244
		c2.244,0,3.75-1.154,4.521-3.466h2.771c-0.352,1.894-1.177,3.366-2.475,4.423s-2.938,1.584-4.917,1.584
		c-2.42,0-4.334-0.819-5.742-2.458c-1.407-1.64-2.112-3.878-2.112-6.717c0-2.838,0.721-5.108,2.162-6.813s3.36-2.559,5.76-2.559
		c1.627,0,3.062,0.407,4.306,1.222c1.243,0.813,2.14,1.926,2.688,3.333C315.149,33.574,315.38,35.411,315.38,37.875z
		 M302.707,35.631h9.702c0.021-0.044,0.033-0.109,0.033-0.198c0-1.43-0.463-2.634-1.387-3.612c-0.924-0.979-2.057-1.47-3.398-1.47
		c-1.387,0-2.53,0.479-3.432,1.437C303.323,32.743,302.817,34.025,302.707,35.631z"/>
	<path fill="#777777" d="M327.062,30.714c-1.849,0.044-3.234,0.474-4.158,1.287s-1.387,2.354-1.387,4.62v8.976h-2.771V28.305h2.541
		v3.136c0.791-1.299,1.556-2.229,2.293-2.788c0.736-0.562,1.545-0.843,2.426-0.843c0.242,0,0.594,0.033,1.057,0.1V30.714z"/>
	<path fill="#777777" d="M333.76,42.165v3.432h-3.433v-3.432H333.76L333.76,42.165z"/>
	<path fill="#777777" d="M352.174,34.112h-2.772c-0.176-1.209-0.615-2.14-1.319-2.788c-0.705-0.648-1.628-0.975-2.772-0.975
		c-1.496,0-2.668,0.61-3.515,1.832s-1.271,2.909-1.271,5.065c0,2.046,0.428,3.651,1.287,4.817c0.857,1.167,2.045,1.748,3.563,1.748
		c2.354,0,3.762-1.386,4.224-4.157h2.771c-0.176,2.111-0.879,3.757-2.111,4.934s-2.882,1.767-4.949,1.767
		c-2.355,0-4.22-0.819-5.595-2.459c-1.375-1.639-2.062-3.854-2.062-6.648c0-2.86,0.697-5.148,2.096-6.864
		c1.396-1.716,3.261-2.574,5.593-2.574c2.002,0,3.603,0.539,4.802,1.617S352.021,32.066,352.174,34.112z"/>
	<path fill="#777777" d="M362.106,27.81c2.486,0,4.416,0.82,5.793,2.459c1.375,1.64,2.062,3.954,2.062,6.946
		c0,2.838-0.699,5.071-2.097,6.699c-1.396,1.628-3.305,2.441-5.726,2.441c-2.464,0-4.384-0.819-5.758-2.459
		c-1.375-1.639-2.062-3.91-2.062-6.813c0-2.904,0.692-5.176,2.078-6.814C357.784,28.63,359.687,27.81,362.106,27.81z M362.14,30.351
		c-1.539,0-2.75,0.601-3.63,1.8c-0.88,1.198-1.319,2.844-1.319,4.934s0.439,3.734,1.319,4.934c0.88,1.2,2.091,1.799,3.63,1.799
		c1.518,0,2.723-0.6,3.614-1.799c0.892-1.198,1.336-2.811,1.336-4.835c0-2.134-0.435-3.806-1.304-5.016
		S363.702,30.351,362.14,30.351z"/>
	<path fill="#777777" d="M373.459,28.305H376v2.442c0.748-1.034,1.534-1.782,2.358-2.244c0.826-0.462,1.811-0.693,2.955-0.693
		c2.133,0,3.685,0.881,4.652,2.641c0.814-0.968,1.617-1.649,2.409-2.046s1.76-0.595,2.903-0.595c1.606,0,2.844,0.413,3.713,1.237
		c0.869,0.825,1.304,2.02,1.304,3.581v12.969h-2.772V33.684c0-1.1-0.281-1.951-0.841-2.558c-0.562-0.604-1.348-0.907-2.36-0.907
		c-1.121,0-2.078,0.44-2.871,1.32c-0.791,0.88-1.188,1.946-1.188,3.2v10.856h-2.771V33.683c0-1.1-0.28-1.951-0.842-2.558
		c-0.561-0.604-1.348-0.907-2.358-0.907c-1.122,0-2.079,0.44-2.871,1.32s-1.188,1.946-1.188,3.2v10.856h-2.771L373.459,28.305
		L373.459,28.305z"/>
</g>
</svg>
