<?xml version="1.0" encoding="utf-8"?>
<!-- Generator: Adobe Illustrator 15.0.2, SVG Export Plug-In . SVG Version: 6.00 Build 0)  -->
<!DOCTYPE svg PUBLIC "-//W3C//DTD SVG 1.1//EN" "http://www.w3.org/Graphics/SVG/1.1/DTD/svg11.dtd">
<svg version="1.1" id="Layer_1" xmlns="http://www.w3.org/2000/svg" xmlns:xlink="http://www.w3.org/1999/xlink" x="0px" y="0px"
	 width="72px" height="72px" viewBox="0 0 72 72" enable-background="new 0 0 72 72" xml:space="preserve">
<g>
	<path fill="#006699" d="M10.317,66.487c-2.418-2.516-3.29-6.673-3.29-12.187V27.596H0.001v34.523c0,3.859,2.643,7.125,6.289,8.234
		h12.77C15.095,70.354,12.347,68.808,10.317,66.487z"/>
	<path fill="#006699" d="M27.646,63.849v6.505h11.021C34.344,69.592,30.539,67.296,27.646,63.849z"/>
	<path fill="#006699" d="M28.376,27.596H15.345v26.417c0,5.802,1.645,9.089,6.383,9.089c0.477,0,3.754-0.023,5.294-0.034
		c-3.224-4.234-5.155-10.002-5.155-16.695C21.819,38.365,24.352,31.945,28.376,27.596z"/>
	<path fill="#006699" d="M45.12,70.354h12.056v-8.188C54.784,66.052,50.583,69.39,45.12,70.354z"/>
	<path fill="#006699" d="M56.778,53.142c0.291-1.16,0.386-2.32,0.386-3.674v-8.124c0-1.062-0.097-2.516-0.386-3.579
		c-1.257-5.415-5.9-9.862-12.282-9.862c-8.8,0-14.021,7.734-14.021,18.084c0,9.476,4.641,17.31,13.828,17.31
		C50.009,63.296,55.23,59.525,56.778,53.142z"/>
	<path fill="#006699" d="M65.647,1.986v19.07v1.235v48.062h0.247c3.084-0.938,5.449-3.42,6.106-6.499V22.292v-1.236V8.549
		C71.327,5.391,68.851,2.866,65.647,1.986z"/>
	<path fill="#006699" d="M7.027,21.058V12.51l8.317-2.61v11.157v0.06H28.94v1.175v4.717c2.163-2.162,4.715-3.757,7.504-4.717
		c2.029-0.698,4.187-1.062,6.408-1.062c2.443,0,4.614,0.394,6.5,1.062c3.64,1.292,6.218,3.608,7.62,6.094h0.191v-6.094v-1.236V1.646
		H9.023C4.04,1.646,0,5.515,0,10.287v10.771v0.06h7.026L7.027,21.058L7.027,21.058z"/>
</g>
</svg>
