<?xml version="1.0" encoding="utf-8"?>
<!-- Generator: Adobe Illustrator 15.0.2, SVG Export Plug-In . SVG Version: 6.00 Build 0)  -->
<!DOCTYPE svg PUBLIC "-//W3C//DTD SVG 1.1//EN" "http://www.w3.org/Graphics/SVG/1.1/DTD/svg11.dtd">
<svg version="1.1" id="Layer_1" xmlns="http://www.w3.org/2000/svg" xmlns:xlink="http://www.w3.org/1999/xlink" x="0px" y="0px"
	 width="88px" height="176px" viewBox="0 0 88 176" enable-background="new 0 0 88 176" xml:space="preserve">
<g id="home">
	
		<linearGradient id="SVGID_1_" gradientUnits="userSpaceOnUse" x1="1980" y1="-1649.6001" x2="1980" y2="-1665.6001" gradientTransform="matrix(1 0 0 -1 -1936 -1630)">
		<stop  offset="0" style="stop-color:#FFFFFF"/>
		<stop  offset="1" style="stop-color:#666766"/>
	</linearGradient>
	<polygon fill="url(#SVGID_1_)" stroke="#000000" stroke-width="2" stroke-miterlimit="10" points="12,35.6 44,19.6 76,35.6 	"/>
	
		<linearGradient id="SVGID_2_" gradientUnits="userSpaceOnUse" x1="1979.999" y1="-1652.8003" x2="1979.999" y2="-1694.3999" gradientTransform="matrix(1 0 0 -1 -1936 -1630)">
		<stop  offset="0" style="stop-color:#FFFFFF"/>
		<stop  offset="1" style="stop-color:#666766"/>
	</linearGradient>
	<polygon fill="url(#SVGID_2_)" stroke="#000000" stroke-width="2" stroke-miterlimit="10" points="44,22.8 18.4,35.6 18.4,64.4 
		69.6,64.4 69.6,35.6 	"/>
	
		<linearGradient id="SVGID_3_" gradientUnits="userSpaceOnUse" x1="1970.4004" y1="-1669.6001" x2="1970.4004" y2="-1694.3999" gradientTransform="matrix(1 0 0 -1 -1936 -1630)">
		<stop  offset="0" style="stop-color:#FFFFFF"/>
		<stop  offset="1" style="stop-color:#666766"/>
	</linearGradient>
	<path fill="url(#SVGID_3_)" stroke="#000000" stroke-width="2" stroke-miterlimit="10" d="M34.4,39.6c-5.302,0-9.6,1.433-9.6,3.2
		v21.6H44V42.8C44,41.033,39.702,39.6,34.4,39.6z"/>
	
		<linearGradient id="SVGID_4_" gradientUnits="userSpaceOnUse" x1="1992.7988" y1="-1672" x2="1992.7988" y2="-1684.8003" gradientTransform="matrix(1 0 0 -1 -1936 -1630)">
		<stop  offset="0" style="stop-color:#FFFFFF"/>
		<stop  offset="1" style="stop-color:#666766"/>
	</linearGradient>
	
		<rect x="50.4" y="42" fill="url(#SVGID_4_)" stroke="#000000" stroke-width="2" stroke-miterlimit="10" width="12.799" height="12.8"/>
</g>
<g id="home_1_">
	
		<linearGradient id="SVGID_5_" gradientUnits="userSpaceOnUse" x1="1980" y1="-1737.6001" x2="1980" y2="-1753.6001" gradientTransform="matrix(1 0 0 -1 -1936 -1630)">
		<stop  offset="0" style="stop-color:#FFEED9"/>
		<stop  offset="1" style="stop-color:#693900"/>
	</linearGradient>
	<polygon fill="url(#SVGID_5_)" stroke="#000000" stroke-width="2" stroke-miterlimit="10" points="12,123.6 44,107.6 76,123.6 	"/>
	
		<linearGradient id="SVGID_6_" gradientUnits="userSpaceOnUse" x1="1979.999" y1="-1740.8013" x2="1979.999" y2="-1782.4009" gradientTransform="matrix(1 0 0 -1 -1936 -1630)">
		<stop  offset="0" style="stop-color:#FFCCBD"/>
		<stop  offset="1" style="stop-color:#A22600"/>
	</linearGradient>
	<polygon fill="url(#SVGID_6_)" stroke="#000000" stroke-width="2" stroke-miterlimit="10" points="44,110.801 18.4,123.6 
		18.4,152.4 69.6,152.4 69.6,123.6 	"/>
	
		<linearGradient id="SVGID_7_" gradientUnits="userSpaceOnUse" x1="1970.4004" y1="-1757.6001" x2="1970.4004" y2="-1782.4009" gradientTransform="matrix(1 0 0 -1 -1936 -1630)">
		<stop  offset="0" style="stop-color:#FFEED9"/>
		<stop  offset="1" style="stop-color:#693900"/>
	</linearGradient>
	<path fill="url(#SVGID_7_)" stroke="#000000" stroke-width="2" stroke-miterlimit="10" d="M34.4,127.6
		c-5.302,0-9.6,1.434-9.6,3.201v21.6H44v-21.6C44,129.033,39.702,127.6,34.4,127.6z"/>
	
		<linearGradient id="SVGID_8_" gradientUnits="userSpaceOnUse" x1="1992.7988" y1="-1760.0005" x2="1992.7988" y2="-1772.8013" gradientTransform="matrix(1 0 0 -1 -1936 -1630)">
		<stop  offset="0" style="stop-color:#FFFFFF"/>
		<stop  offset="1" style="stop-color:#666766"/>
	</linearGradient>
	
		<rect x="50.4" y="130" fill="url(#SVGID_8_)" stroke="#000000" stroke-width="2" stroke-miterlimit="10" width="12.799" height="12.801"/>
</g>
</svg>
