<?xml version="1.0" encoding="utf-8"?>
<!-- Generator: Adobe Illustrator 15.0.2, SVG Export Plug-In . SVG Version: 6.00 Build 0)  -->
<!DOCTYPE svg PUBLIC "-//W3C//DTD SVG 1.1//EN" "http://www.w3.org/Graphics/SVG/1.1/DTD/svg11.dtd">
<svg version="1.1" id="Layer_1" xmlns="http://www.w3.org/2000/svg" xmlns:xlink="http://www.w3.org/1999/xlink" x="0px" y="0px"
	 width="88px" height="176px" viewBox="0 0 88 176" enable-background="new 0 0 88 176" xml:space="preserve">
<g id="Layer_3">
</g>
<g id="unselected_1_">
	<g id="guide_x28_s_x29_">
	</g>
	<g>
		<g>
			<defs>
				<rect id="SVGID_1_" y="4" width="88" height="80"/>
			</defs>
			<clipPath id="SVGID_2_">
				<use xlink:href="#SVGID_1_"  overflow="visible"/>
			</clipPath>
			<g clip-path="url(#SVGID_2_)">
				<g>
					
						<linearGradient id="SVGID_3_" gradientUnits="userSpaceOnUse" x1="1104" y1="-1163" x2="1104" y2="-1203" gradientTransform="matrix(1 0 0 -1 -1060 -1139)">
						<stop  offset="0" style="stop-color:#E8E8E8"/>
						<stop  offset="0.0982" style="stop-color:#FFFFFF"/>
						<stop  offset="0.2945" style="stop-color:#CCCCCC"/>
						<stop  offset="0.5" style="stop-color:#131314"/>
						<stop  offset="0.8466" style="stop-color:#CCCCCC"/>
						<stop  offset="1" style="stop-color:#FFFFFF"/>
					</linearGradient>
					<path fill="url(#SVGID_3_)" stroke="#000000" stroke-width="2" stroke-miterlimit="10" d="M44,24c-13.255,0-24,0-24,20
						s10.745,20,24,20s24,0,24-20S57.255,24,44,24z M44,52.571c-8.836,0-16,0-16-8.571s7.164-8.571,16-8.571c8.837,0,16,0,16,8.571
						S52.837,52.571,44,52.571z"/>
				</g>
				<g>
					
						<linearGradient id="SVGID_4_" gradientUnits="userSpaceOnUse" x1="134" y1="-27" x2="134" y2="-67" gradientTransform="matrix(1 0 0 -1 -90 -3)">
						<stop  offset="0" style="stop-color:#E8E8E8"/>
						<stop  offset="0.0982" style="stop-color:#FFFFFF"/>
						<stop  offset="0.2945" style="stop-color:#CCCCCC"/>
						<stop  offset="0.5" style="stop-color:#131314"/>
						<stop  offset="0.8466" style="stop-color:#CCCCCC"/>
						<stop  offset="1" style="stop-color:#FFFFFF"/>
					</linearGradient>
					<path fill="url(#SVGID_4_)" stroke="#000000" stroke-width="2" stroke-miterlimit="10" d="M44,24c-13.255,0-24,0-24,20
						s10.745,20,24,20s24,0,24-20S57.255,24,44,24z M44,52.571c-8.836,0-16,0-16-8.571s7.164-8.571,16-8.571c8.837,0,16,0,16,8.571
						S52.837,52.571,44,52.571z"/>
				</g>
			</g>
		</g>
		<g>
			<defs>
				<rect id="SVGID_5_" y="4" width="88" height="80"/>
			</defs>
			<clipPath id="SVGID_6_">
				<use xlink:href="#SVGID_5_"  overflow="visible"/>
			</clipPath>
			<g clip-path="url(#SVGID_6_)">
				<g>
					
						<linearGradient id="SVGID_7_" gradientUnits="userSpaceOnUse" x1="1103.999" y1="-1163" x2="1103.999" y2="-1203" gradientTransform="matrix(1 0 0 -1 -1004 -1139)">
						<stop  offset="0" style="stop-color:#E8E8E8"/>
						<stop  offset="0.0982" style="stop-color:#FFFFFF"/>
						<stop  offset="0.2945" style="stop-color:#CCCCCC"/>
						<stop  offset="0.5" style="stop-color:#131314"/>
						<stop  offset="0.8466" style="stop-color:#CCCCCC"/>
						<stop  offset="1" style="stop-color:#FFFFFF"/>
					</linearGradient>
					<path fill="url(#SVGID_7_)" stroke="#000000" stroke-width="2" stroke-miterlimit="10" d="M100,24c-13.255,0-24,0-24,20
						s10.745,20,24,20s24,0,24-20S113.255,24,100,24z M100,52.571c-8.836,0-16,0-16-8.571s7.164-8.571,16-8.571
						c8.837,0,16,0,16,8.571S108.837,52.571,100,52.571z"/>
				</g>
				<g>
					
						<linearGradient id="SVGID_8_" gradientUnits="userSpaceOnUse" x1="189.999" y1="-27" x2="189.999" y2="-67" gradientTransform="matrix(1 0 0 -1 -90 -3)">
						<stop  offset="0" style="stop-color:#E8E8E8"/>
						<stop  offset="0.0982" style="stop-color:#FFFFFF"/>
						<stop  offset="0.2945" style="stop-color:#CCCCCC"/>
						<stop  offset="0.5" style="stop-color:#131314"/>
						<stop  offset="0.8466" style="stop-color:#CCCCCC"/>
						<stop  offset="1" style="stop-color:#FFFFFF"/>
					</linearGradient>
					<path fill="url(#SVGID_8_)" stroke="#000000" stroke-width="2" stroke-miterlimit="10" d="M100,24c-13.255,0-24,0-24,20
						s10.745,20,24,20s24,0,24-20S113.255,24,100,24z M100,52.571c-8.836,0-16,0-16-8.571s7.164-8.571,16-8.571
						c8.837,0,16,0,16,8.571S108.837,52.571,100,52.571z"/>
				</g>
			</g>
		</g>
		<g>
			<defs>
				<rect id="SVGID_9_" y="4" width="88" height="80"/>
			</defs>
			<clipPath id="SVGID_10_">
				<use xlink:href="#SVGID_9_"  overflow="visible"/>
			</clipPath>
			<g clip-path="url(#SVGID_10_)">
				<g>
					
						<linearGradient id="SVGID_11_" gradientUnits="userSpaceOnUse" x1="1104" y1="-1163" x2="1104" y2="-1203" gradientTransform="matrix(1 0 0 -1 -1116 -1139)">
						<stop  offset="0" style="stop-color:#E8E8E8"/>
						<stop  offset="0.0982" style="stop-color:#FFFFFF"/>
						<stop  offset="0.2945" style="stop-color:#CCCCCC"/>
						<stop  offset="0.5" style="stop-color:#131314"/>
						<stop  offset="0.8466" style="stop-color:#CCCCCC"/>
						<stop  offset="1" style="stop-color:#FFFFFF"/>
					</linearGradient>
					<path fill="url(#SVGID_11_)" stroke="#000000" stroke-width="2" stroke-miterlimit="10" d="M-12,24c-13.255,0-24,0-24,20
						s10.745,20,24,20s24,0,24-20S1.255,24-12,24z M-12,52.571c-8.836,0-16,0-16-8.571s7.164-8.571,16-8.571c8.837,0,16,0,16,8.571
						S-3.163,52.571-12,52.571z"/>
				</g>
				<g>
					
						<linearGradient id="SVGID_12_" gradientUnits="userSpaceOnUse" x1="78" y1="-27" x2="78" y2="-67" gradientTransform="matrix(1 0 0 -1 -90 -3)">
						<stop  offset="0" style="stop-color:#E8E8E8"/>
						<stop  offset="0.0982" style="stop-color:#FFFFFF"/>
						<stop  offset="0.2945" style="stop-color:#CCCCCC"/>
						<stop  offset="0.5" style="stop-color:#131314"/>
						<stop  offset="0.8466" style="stop-color:#CCCCCC"/>
						<stop  offset="1" style="stop-color:#FFFFFF"/>
					</linearGradient>
					<path fill="url(#SVGID_12_)" stroke="#000000" stroke-width="2" stroke-miterlimit="10" d="M-12,24c-13.255,0-24,0-24,20
						s10.745,20,24,20s24,0,24-20S1.255,24-12,24z M-12,52.571c-8.836,0-16,0-16-8.571s7.164-8.571,16-8.571c8.837,0,16,0,16,8.571
						S-3.163,52.571-12,52.571z"/>
				</g>
			</g>
		</g>
		<g>
			<defs>
				<rect id="SVGID_13_" y="4" width="88" height="80"/>
			</defs>
			<clipPath id="SVGID_14_">
				<use xlink:href="#SVGID_13_"  overflow="visible"/>
			</clipPath>
			
				<linearGradient id="SVGID_15_" gradientUnits="userSpaceOnUse" x1="1076" y1="-1178" x2="1076" y2="-1188" gradientTransform="matrix(1 0 0 -1 -1060 -1139)">
				<stop  offset="0" style="stop-color:#E8E8E8"/>
				<stop  offset="0.0982" style="stop-color:#FFFFFF"/>
				<stop  offset="0.2945" style="stop-color:#CCCCCC"/>
				<stop  offset="0.5" style="stop-color:#131314"/>
				<stop  offset="0.8466" style="stop-color:#CCCCCC"/>
				<stop  offset="1" style="stop-color:#FFFFFF"/>
			</linearGradient>
			<path clip-path="url(#SVGID_14_)" fill="url(#SVGID_15_)" stroke="#000000" stroke-width="2" stroke-miterlimit="10" d="M40,44
				c0,5-10.745,5-24,5s-24,0-24-5s10.745-5,24-5S40,39,40,44z"/>
		</g>
		<g>
			<defs>
				<rect id="SVGID_16_" y="4" width="88" height="80"/>
			</defs>
			<clipPath id="SVGID_17_">
				<use xlink:href="#SVGID_16_"  overflow="visible"/>
			</clipPath>
			
				<linearGradient id="SVGID_18_" gradientUnits="userSpaceOnUse" x1="1131.999" y1="-1178" x2="1131.999" y2="-1188" gradientTransform="matrix(1 0 0 -1 -1060 -1139)">
				<stop  offset="0" style="stop-color:#E8E8E8"/>
				<stop  offset="0.0982" style="stop-color:#FFFFFF"/>
				<stop  offset="0.2945" style="stop-color:#CCCCCC"/>
				<stop  offset="0.5" style="stop-color:#131314"/>
				<stop  offset="0.8466" style="stop-color:#CCCCCC"/>
				<stop  offset="1" style="stop-color:#FFFFFF"/>
			</linearGradient>
			<path clip-path="url(#SVGID_17_)" fill="url(#SVGID_18_)" stroke="#000000" stroke-width="2" stroke-miterlimit="10" d="M96,44
				c0,5-10.745,5-24,5s-24,0-24-5s10.745-5,24-5S96,39,96,44z"/>
		</g>
	</g>
</g>
<g id="sekected">
	<g>
		<g>
			<defs>
				<rect id="SVGID_19_" y="92" width="88" height="80"/>
			</defs>
			<clipPath id="SVGID_20_">
				<use xlink:href="#SVGID_19_"  overflow="visible"/>
			</clipPath>
			
				<linearGradient id="SVGID_21_" gradientUnits="userSpaceOnUse" x1="1104" y1="-1251.0005" x2="1104" y2="-1291.0005" gradientTransform="matrix(1 0 0 -1 -1060 -1139)">
				<stop  offset="0" style="stop-color:#FFE191"/>
				<stop  offset="1" style="stop-color:#D0AB00"/>
			</linearGradient>
			<path clip-path="url(#SVGID_20_)" fill="url(#SVGID_21_)" stroke="#000000" stroke-width="2" stroke-miterlimit="10" d="M44,112
				c-13.255,0-24,0-24,20s10.745,20,24,20s24,0,24-20S57.255,112,44,112z M44,140.572c-8.836,0-16,0-16-8.572s7.164-8.572,16-8.572
				c8.837,0,16,0,16,8.572S52.837,140.572,44,140.572z"/>
		</g>
		<g>
			<defs>
				<rect id="SVGID_22_" y="92" width="88" height="80"/>
			</defs>
			<clipPath id="SVGID_23_">
				<use xlink:href="#SVGID_22_"  overflow="visible"/>
			</clipPath>
			
				<linearGradient id="SVGID_24_" gradientUnits="userSpaceOnUse" x1="752" y1="1378" x2="752" y2="1418" gradientTransform="matrix(1 0 0 1 -708 -1266)">
				<stop  offset="0" style="stop-color:#E0E0FF"/>
				<stop  offset="0.0982" style="stop-color:#FFFFFF"/>
				<stop  offset="0.1902" style="stop-color:#FFC75C"/>
				<stop  offset="0.5" style="stop-color:#131314"/>
				<stop  offset="0.6503" style="stop-color:#133370"/>
				<stop  offset="0.9387" style="stop-color:#B3BDFF"/>
				<stop  offset="1" style="stop-color:#FFFFFF"/>
			</linearGradient>
			<path clip-path="url(#SVGID_23_)" fill="url(#SVGID_24_)" stroke="#000000" stroke-width="2" stroke-miterlimit="10" d="M44,112
				c-13.255,0-24,0-24,20s10.745,20,24,20s24,0,24-20S57.255,112,44,112z M44,140.572c-8.836,0-16,0-16-8.572s7.164-8.572,16-8.572
				c8.837,0,16,0,16,8.572S52.837,140.572,44,140.572z"/>
		</g>
	</g>
	<g>
		<g>
			<defs>
				<rect id="SVGID_25_" y="92" width="88" height="80"/>
			</defs>
			<clipPath id="SVGID_26_">
				<use xlink:href="#SVGID_25_"  overflow="visible"/>
			</clipPath>
			
				<linearGradient id="SVGID_27_" gradientUnits="userSpaceOnUse" x1="1103.999" y1="-1251.0005" x2="1103.999" y2="-1291.0005" gradientTransform="matrix(1 0 0 -1 -1004 -1139)">
				<stop  offset="0" style="stop-color:#E8E8E8"/>
				<stop  offset="0.0982" style="stop-color:#FFFFFF"/>
				<stop  offset="0.2945" style="stop-color:#FFE7A8"/>
				<stop  offset="0.5" style="stop-color:#131314"/>
				<stop  offset="0.8466" style="stop-color:#D9DEFF"/>
				<stop  offset="1" style="stop-color:#FFFFFF"/>
			</linearGradient>
			<path clip-path="url(#SVGID_26_)" fill="url(#SVGID_27_)" stroke="#000000" stroke-width="2" stroke-miterlimit="10" d="M100,112
				c-13.255,0-24,0-24,20s10.745,20,24,20s24,0,24-20S113.255,112,100,112z M100,140.572c-8.836,0-16,0-16-8.572
				s7.164-8.572,16-8.572c8.837,0,16,0,16,8.572S108.837,140.572,100,140.572z"/>
		</g>
		<g>
			<defs>
				<rect id="SVGID_28_" y="92" width="88" height="80"/>
			</defs>
			<clipPath id="SVGID_29_">
				<use xlink:href="#SVGID_28_"  overflow="visible"/>
			</clipPath>
			
				<linearGradient id="SVGID_30_" gradientUnits="userSpaceOnUse" x1="808" y1="1378" x2="808" y2="1418" gradientTransform="matrix(1 0 0 1 -708 -1266)">
				<stop  offset="0" style="stop-color:#E0E0FF"/>
				<stop  offset="0.0982" style="stop-color:#FFFFFF"/>
				<stop  offset="0.1902" style="stop-color:#FFC75C"/>
				<stop  offset="0.5" style="stop-color:#131314"/>
				<stop  offset="0.6503" style="stop-color:#133370"/>
				<stop  offset="0.9387" style="stop-color:#B3BDFF"/>
				<stop  offset="1" style="stop-color:#FFFFFF"/>
			</linearGradient>
			<path clip-path="url(#SVGID_29_)" fill="url(#SVGID_30_)" stroke="#000000" stroke-width="2" stroke-miterlimit="10" d="M100,112
				c-13.255,0-24,0-24,20s10.745,20,24,20s24,0,24-20S113.255,112,100,112z M100,140.572c-8.836,0-16,0-16-8.572
				s7.164-8.572,16-8.572c8.837,0,16,0,16,8.572S108.837,140.572,100,140.572z"/>
		</g>
	</g>
	<g>
		<g>
			<defs>
				<rect id="SVGID_31_" y="92" width="88" height="80"/>
			</defs>
			<clipPath id="SVGID_32_">
				<use xlink:href="#SVGID_31_"  overflow="visible"/>
			</clipPath>
			
				<linearGradient id="SVGID_33_" gradientUnits="userSpaceOnUse" x1="1104" y1="-1251.0005" x2="1104" y2="-1291.0005" gradientTransform="matrix(1 0 0 -1 -1116 -1139)">
				<stop  offset="0" style="stop-color:#FFE191"/>
				<stop  offset="1" style="stop-color:#D0AB00"/>
			</linearGradient>
			<path clip-path="url(#SVGID_32_)" fill="url(#SVGID_33_)" stroke="#000000" stroke-width="2" stroke-miterlimit="10" d="M-12,112
				c-13.255,0-24,0-24,20s10.745,20,24,20s24,0,24-20S1.255,112-12,112z M-12,140.572c-8.836,0-16,0-16-8.572s7.164-8.572,16-8.572
				c8.837,0,16,0,16,8.572S-3.163,140.572-12,140.572z"/>
		</g>
		<g>
			<defs>
				<rect id="SVGID_34_" y="92" width="88" height="80"/>
			</defs>
			<clipPath id="SVGID_35_">
				<use xlink:href="#SVGID_34_"  overflow="visible"/>
			</clipPath>
			
				<linearGradient id="SVGID_36_" gradientUnits="userSpaceOnUse" x1="696.001" y1="1378" x2="696.001" y2="1418" gradientTransform="matrix(1 0 0 1 -708 -1266)">
				<stop  offset="0" style="stop-color:#E0E0FF"/>
				<stop  offset="0.0982" style="stop-color:#FFFFFF"/>
				<stop  offset="0.1902" style="stop-color:#FFC75C"/>
				<stop  offset="0.5" style="stop-color:#131314"/>
				<stop  offset="0.6503" style="stop-color:#133370"/>
				<stop  offset="0.9387" style="stop-color:#B3BDFF"/>
				<stop  offset="1" style="stop-color:#FFFFFF"/>
			</linearGradient>
			<path clip-path="url(#SVGID_35_)" fill="url(#SVGID_36_)" stroke="#000000" stroke-width="2" stroke-miterlimit="10" d="M-12,112
				c-13.255,0-24,0-24,20s10.745,20,24,20s24,0,24-20S1.255,112-12,112z M-12,140.572c-8.836,0-16,0-16-8.572s7.164-8.572,16-8.572
				c8.837,0,16,0,16,8.572S-3.163,140.572-12,140.572z"/>
		</g>
	</g>
	<g>
		<g>
			<defs>
				<rect id="SVGID_37_" y="92" width="88" height="80"/>
			</defs>
			<clipPath id="SVGID_38_">
				<use xlink:href="#SVGID_37_"  overflow="visible"/>
			</clipPath>
			
				<linearGradient id="SVGID_39_" gradientUnits="userSpaceOnUse" x1="1076" y1="-1266.0005" x2="1076" y2="-1276.0005" gradientTransform="matrix(1 0 0 -1 -1060 -1139)">
				<stop  offset="0" style="stop-color:#E8E8E8"/>
				<stop  offset="0.0982" style="stop-color:#FFFFFF"/>
				<stop  offset="0.2945" style="stop-color:#FFDC80"/>
				<stop  offset="0.5" style="stop-color:#131314"/>
				<stop  offset="0.8466" style="stop-color:#B3BDFF"/>
				<stop  offset="1" style="stop-color:#FFFFFF"/>
			</linearGradient>
			<path clip-path="url(#SVGID_38_)" fill="url(#SVGID_39_)" stroke="#000000" stroke-width="2" stroke-miterlimit="10" d="M40,132
				c0,5-10.745,5-24,5s-24,0-24-5s10.745-5,24-5S40,127,40,132z"/>
		</g>
	</g>
	<g>
		<g>
			<defs>
				<rect id="SVGID_40_" y="94" width="88" height="80"/>
			</defs>
			<clipPath id="SVGID_41_">
				<use xlink:href="#SVGID_40_"  overflow="visible"/>
			</clipPath>
			
				<linearGradient id="SVGID_42_" gradientUnits="userSpaceOnUse" x1="1131.999" y1="-1266.0005" x2="1131.999" y2="-1276.0005" gradientTransform="matrix(1 0 0 -1 -1060 -1139)">
				<stop  offset="0" style="stop-color:#E8E8E8"/>
				<stop  offset="0.0982" style="stop-color:#FFFFFF"/>
				<stop  offset="0.2945" style="stop-color:#FFE7A8"/>
				<stop  offset="0.5" style="stop-color:#131314"/>
				<stop  offset="0.8466" style="stop-color:#D9DEFF"/>
				<stop  offset="1" style="stop-color:#FFFFFF"/>
			</linearGradient>
			<path clip-path="url(#SVGID_41_)" fill="url(#SVGID_42_)" stroke="#000000" stroke-width="2" stroke-miterlimit="10" d="M96,132
				c0,5-10.745,5-24,5s-24,0-24-5s10.745-5,24-5S96,127,96,132z"/>
		</g>
	</g>
</g>
</svg>
