<?xml version="1.0" encoding="utf-8"?>
<!DOCTYPE svg PUBLIC "-//W3C//DTD SVG 1.1//EN" "http://www.w3.org/Graphics/SVG/1.1/DTD/svg11.dtd">
<svg version="1.1" xmlns="http://www.w3.org/2000/svg" xmlns:xlink="http://www.w3.org/1999/xlink" x="0px" y="0px" width="96px"
	 height="96px" viewBox="0 0 96 96" enable-background="new 0 0 96 96" xml:space="preserve">
<g id="Layer_1">
	<g>
		<defs>
			<path id="SVGID_1_" d="M14.824,87.381c-3.122-3.248-4.247-8.618-4.247-15.738V37.146H1.5V81.74c0,4.982,3.414,9.2,8.124,10.634
				h16.494C20.996,92.374,17.448,90.378,14.824,87.381z M37.21,83.973v8.401h14.235C45.861,91.389,40.945,88.425,37.21,83.973z
				 M38.153,37.146H21.321v34.122c0,7.495,2.122,11.741,8.243,11.741c0.617,0,4.849-0.033,6.839-0.047
				c-4.165-5.467-6.658-12.918-6.658-21.563C29.681,51.057,32.954,42.763,38.153,37.146z M59.778,92.374h15.575V81.799
				C72.263,86.817,66.838,91.13,59.778,92.374z M74.835,70.143c0.377-1.499,0.502-2.997,0.502-4.748v-10.49
				c0-1.376-0.125-3.248-0.502-4.622c-1.622-6.997-7.618-12.741-15.861-12.741c-11.366,0-18.111,9.992-18.111,23.359
				c0,12.239,5.995,22.357,17.862,22.357C66.094,83.258,72.837,78.388,74.835,70.143z M86.294,4.066v88.308h0.318
				c3.983-1.211,7.039-4.415,7.888-8.39V12.541C93.628,8.461,90.432,5.202,86.294,4.066z M10.577,17.659l10.744-3.373v14.491h17.561
				v7.613c2.793-2.792,6.089-4.852,9.692-6.094c2.622-0.904,5.407-1.375,8.277-1.375c3.156,0,5.96,0.51,8.396,1.375
				c4.702,1.669,8.032,4.661,9.844,7.869h0.247V3.627H13.155C6.718,3.627,1.5,8.622,1.5,14.786v13.991h9.077V17.659z"/>
		</defs>
		<clipPath id="SVGID_2_">
			<use xlink:href="#SVGID_1_"  overflow="visible"/>
		</clipPath>
		<linearGradient id="SVGID_3_" gradientUnits="userSpaceOnUse" x1="48.1177" y1="1.644" x2="48.1177" y2="94.8813">
			<stop  offset="0" style="stop-color:#206794"/>
			<stop  offset="1" style="stop-color:#213133"/>
		</linearGradient>
		<rect x="1.5" y="1.644" clip-path="url(#SVGID_2_)" fill="url(#SVGID_3_)" width="93.235" height="93.237"/>
	</g>
	<g>
		<path fill="#FFFFFF" d="M75.337,3.627v34.538H75.09c-1.812-3.208-5.142-6.2-9.844-7.869c-2.436-0.864-5.239-1.375-8.396-1.375
			c-2.87,0-5.655,0.471-8.277,1.375c-3.603,1.242-6.898,3.301-9.692,6.094v-7.613H21.321V14.286l-10.744,3.373v11.118H1.5V14.786
			c0-6.164,5.218-11.159,11.655-11.159H75.337 M86.294,4.066c4.138,1.135,7.334,4.395,8.206,8.474v71.444
			c-0.849,3.975-3.904,7.179-7.888,8.39h-0.318V4.066 M38.153,37.146h0.005 M38.153,37.146c-5.199,5.618-8.472,13.911-8.409,24.253
			c0,8.646,2.493,16.097,6.658,21.563c-1.99,0.014-6.222,0.047-6.839,0.047c-6.122,0-8.243-4.246-8.243-11.741V37.146H38.153
			 M10.577,37.146v34.497c0,7.12,1.125,12.49,4.247,15.738c2.624,2.997,6.171,4.993,11.293,4.993H9.624
			C4.914,90.94,1.5,86.723,1.5,81.74V37.146H10.577 M58.974,37.541c8.243,0,14.239,5.745,15.861,12.741
			c0.377,1.374,0.502,3.246,0.502,4.622v10.49c0,1.751-0.125,3.249-0.502,4.748c-1.998,8.245-8.741,13.115-16.11,13.115
			c-11.868,0-17.862-10.118-17.862-22.357C40.862,47.533,47.608,37.541,58.974,37.541 M75.354,81.799v10.575H59.778
			C66.838,91.13,72.263,86.817,75.354,81.799 M37.21,83.973c3.735,4.452,8.651,7.416,14.235,8.401H37.21V83.973 M75.337,2.627
			H13.155C6.177,2.627,0.5,8.082,0.5,14.786v13.991c0,0.552,0.448,1,1,1h9.077c0.552,0,1-0.448,1-1V18.393l8.744-2.745v13.129
			c0,0.552,0.448,1,1,1h16.561v6.369H21.321c-0.552,0-1,0.448-1,1v34.122c0,5.47,0.958,12.741,9.243,12.741
			c0.423,0,2.544-0.016,4.479-0.03l2.167-0.016c0,0.004,0,0.007,0,0.01v8.401c0,0.553,0.448,1,1,1h14.235
			c0.519,0,0.951-0.396,0.996-0.913s-0.312-0.981-0.822-1.071c-5.284-0.933-10.002-3.72-13.643-8.06
			c-0.15-0.18-0.354-0.296-0.574-0.339c0.007-0.225-0.062-0.45-0.204-0.636c-4.222-5.541-6.454-12.788-6.454-20.957
			c-0.059-9.589,2.747-17.726,8.115-23.543c0.135-0.134,0.232-0.305,0.274-0.498c0.169-0.044,0.327-0.132,0.456-0.261
			c2.681-2.68,5.814-4.65,9.311-5.855c2.541-0.876,5.216-1.32,7.951-1.32c2.887,0,5.599,0.443,8.062,1.317
			c4.128,1.465,7.434,4.1,9.307,7.418c0.178,0.314,0.511,0.508,0.871,0.508h0.247c0.553,0,1-0.448,1-1V3.627
			C76.337,3.075,75.89,2.627,75.337,2.627L75.337,2.627z M86.294,3.066c-0.217,0-0.431,0.07-0.606,0.205
			c-0.248,0.189-0.394,0.483-0.394,0.795v88.308c0,0.553,0.447,1,1,1h0.318c0.099,0,0.196-0.015,0.291-0.043
			c4.369-1.328,7.655-4.83,8.574-9.138c0.015-0.068,0.022-0.139,0.022-0.209V12.541c0-0.07-0.008-0.14-0.022-0.209
			c-0.949-4.444-4.367-7.98-8.919-9.229C86.472,3.078,86.383,3.066,86.294,3.066L86.294,3.066z M10.577,36.146H1.5
			c-0.552,0-1,0.448-1,1V81.74c0,5.325,3.55,9.982,8.833,11.591c0.094,0.028,0.192,0.043,0.291,0.043h16.494c0.552,0,1-0.447,1-1
			s-0.448-1-1-1c-4.353,0-7.801-1.521-10.541-4.651c-2.739-2.852-4-7.632-4-15.08V37.146C11.577,36.593,11.129,36.146,10.577,36.146
			L10.577,36.146z M58.974,36.541c-11.431,0-19.111,9.789-19.111,24.359c0,14.189,7.404,23.357,18.862,23.357
			c8.206,0,15.07-5.578,17.082-13.88c0.366-1.455,0.53-2.994,0.53-4.983v-10.49c0-0.88-0.053-3.118-0.537-4.887
			C73.935,41.973,67.169,36.541,58.974,36.541L58.974,36.541z M75.354,80.799c-0.341,0-0.666,0.175-0.852,0.476
			c-3.288,5.339-8.718,9.025-14.897,10.115c-0.511,0.09-0.867,0.555-0.822,1.071s0.478,0.913,0.996,0.913h15.575
			c0.553,0,1-0.447,1-1V81.799c0-0.447-0.297-0.84-0.728-0.962C75.536,80.812,75.444,80.799,75.354,80.799L75.354,80.799z"/>
	</g>
</g>
</svg>
