<?xml version="1.0" encoding="utf-8"?>
<!DOCTYPE svg PUBLIC "-//W3C//DTD SVG 1.1//EN" "http://www.w3.org/Graphics/SVG/1.1/DTD/svg11.dtd">
<svg version="1.1" id="Layer_1" xmlns="http://www.w3.org/2000/svg" xmlns:xlink="http://www.w3.org/1999/xlink" x="0px" y="0px"
	 width="88px" height="176px" viewBox="0 0 88 176" enable-background="new 0 0 88 176" xml:space="preserve">
<g id="resume">
	
		<linearGradient id="SVGID_1_" gradientUnits="userSpaceOnUse" x1="927.998" y1="-668" x2="927.998" y2="-724.0005" gradientTransform="matrix(1 0 0 -1 -884 -652)">
		<stop  offset="0" style="stop-color:#FFFFFF"/>
		<stop  offset="1" style="stop-color:#666766"/>
	</linearGradient>
	
		<rect x="22.364" y="16" fill="url(#SVGID_1_)" stroke="#000000" stroke-width="2" stroke-miterlimit="10" width="43.271" height="56"/>
	<line fill="none" stroke="#000000" stroke-width="2" stroke-miterlimit="10" x1="36" y1="20" x2="36" y2="68"/>
	<line fill="none" stroke="#000000" stroke-width="2" stroke-miterlimit="10" x1="40" y1="28" x2="60" y2="28"/>
	<line fill="none" stroke="#000000" stroke-width="2" stroke-miterlimit="10" x1="40" y1="24" x2="60" y2="24"/>
	<line fill="none" stroke="#000000" stroke-width="2" stroke-miterlimit="10" x1="40" y1="32" x2="60" y2="32"/>
	<line fill="none" stroke="#000000" stroke-width="2" stroke-miterlimit="10" x1="40" y1="40" x2="60" y2="40"/>
	<line fill="none" stroke="#000000" stroke-width="2" stroke-miterlimit="10" x1="40" y1="44" x2="60" y2="44"/>
	<line fill="none" stroke="#000000" stroke-width="2" stroke-miterlimit="10" x1="40" y1="48" x2="60" y2="48"/>
	<line fill="none" stroke="#000000" stroke-width="2" stroke-miterlimit="10" x1="40" y1="52" x2="60" y2="52"/>
	<line fill="none" stroke="#000000" stroke-width="2" stroke-miterlimit="10" x1="40" y1="64" x2="60" y2="64"/>
	<line fill="none" stroke="#000000" stroke-width="2" stroke-miterlimit="10" x1="40" y1="68" x2="60" y2="68"/>
	<line fill="none" stroke="#000000" stroke-width="2" stroke-miterlimit="10" x1="40" y1="56" x2="60" y2="56"/>
	<line fill="none" stroke="#000000" stroke-width="2" stroke-miterlimit="10" x1="32" y1="24" x2="28" y2="24"/>
	<line fill="none" stroke="#000000" stroke-width="2" stroke-miterlimit="10" x1="28" y1="28" x2="32" y2="28"/>
	<line fill="none" stroke="#000000" stroke-width="2" stroke-miterlimit="10" x1="28" y1="68" x2="32" y2="68"/>
</g>
<g id="resume_1_">
	
		<linearGradient id="SVGID_2_" gradientUnits="userSpaceOnUse" x1="927.998" y1="-756.0005" x2="927.998" y2="-812.0005" gradientTransform="matrix(1 0 0 -1 -884 -652)">
		<stop  offset="0" style="stop-color:#FEFFF2"/>
		<stop  offset="1" style="stop-color:#C49362"/>
	</linearGradient>
	
		<rect x="22.364" y="104" fill="url(#SVGID_2_)" stroke="#000000" stroke-width="2" stroke-miterlimit="10" width="43.271" height="56"/>
	<line fill="none" stroke="#000000" stroke-width="2" stroke-miterlimit="10" x1="36" y1="108" x2="36" y2="156"/>
	<line fill="none" stroke="#000000" stroke-width="2" stroke-miterlimit="10" x1="40" y1="116" x2="60" y2="116"/>
	<line fill="none" stroke="#000000" stroke-width="2" stroke-miterlimit="10" x1="40" y1="112" x2="60" y2="112"/>
	<line fill="none" stroke="#000000" stroke-width="2" stroke-miterlimit="10" x1="40" y1="120" x2="60" y2="120"/>
	<line fill="none" stroke="#000000" stroke-width="2" stroke-miterlimit="10" x1="40" y1="128" x2="60" y2="128"/>
	<line fill="none" stroke="#000000" stroke-width="2" stroke-miterlimit="10" x1="40" y1="132" x2="60" y2="132"/>
	<line fill="none" stroke="#000000" stroke-width="2" stroke-miterlimit="10" x1="40" y1="136" x2="60" y2="136"/>
	<line fill="none" stroke="#000000" stroke-width="2" stroke-miterlimit="10" x1="40" y1="140" x2="60" y2="140"/>
	<line fill="none" stroke="#000000" stroke-width="2" stroke-miterlimit="10" x1="40" y1="152" x2="60" y2="152"/>
	<line fill="none" stroke="#000000" stroke-width="2" stroke-miterlimit="10" x1="40" y1="156" x2="60" y2="156"/>
	<line fill="none" stroke="#000000" stroke-width="2" stroke-miterlimit="10" x1="40" y1="144" x2="60" y2="144"/>
	<line fill="none" stroke="#000000" stroke-width="2" stroke-miterlimit="10" x1="32" y1="112" x2="28" y2="112"/>
	<line fill="none" stroke="#000000" stroke-width="2" stroke-miterlimit="10" x1="28" y1="116" x2="32" y2="116"/>
	<line fill="none" stroke="#000000" stroke-width="2" stroke-miterlimit="10" x1="28" y1="156" x2="32" y2="156"/>
</g>
</svg>
