<?xml version="1.0" encoding="utf-8"?>
<!DOCTYPE svg PUBLIC "-//W3C//DTD SVG 1.1//EN" "http://www.w3.org/Graphics/SVG/1.1/DTD/svg11.dtd">
<svg version="1.1" id="Layer_1" xmlns="http://www.w3.org/2000/svg" xmlns:xlink="http://www.w3.org/1999/xlink" x="0px" y="0px"
	 width="88px" height="176px" viewBox="0 0 88 176" enable-background="new 0 0 88 176" xml:space="preserve">
<g id="skills">
	<g>
		<g>
			
				<linearGradient id="SVGID_1_" gradientUnits="userSpaceOnUse" x1="928" y1="-668" x2="928" y2="-724.0005" gradientTransform="matrix(1 0 0 -1 -884 -652)">
				<stop  offset="0" style="stop-color:#FFFFFF"/>
				<stop  offset="1" style="stop-color:#666766"/>
			</linearGradient>
			<path fill="url(#SVGID_1_)" d="M72,48v-8h-8.4c-0.52-2.553-1.529-4.925-2.918-7.024l5.945-5.947l-5.656-5.657l-5.947,5.947
				c-2.099-1.39-4.471-2.399-7.021-2.918V16h-8v8.401c-2.553,0.519-4.925,1.528-7.024,2.918l-5.949-5.947l-5.657,5.657l5.947,5.947
				c-1.39,2.099-2.399,4.471-2.918,7.024H16v8h8.401c0.519,2.553,1.528,4.925,2.918,7.023l-5.947,5.947l5.657,5.655l5.947-5.946
				c2.099,1.391,4.471,2.399,7.024,2.918V72h8v-8.4c2.553-0.52,4.925-1.529,7.023-2.918l5.947,5.945l5.653-5.656l-5.944-5.945
				c1.391-2.101,2.397-4.473,2.918-7.024L72,48L72,48z M44,52c-4.418,0-8-3.582-8-8s3.582-8,8-8s8,3.582,8,8S48.418,52,44,52z"/>
		</g>
		<g>
			<path fill="none" stroke="#000000" stroke-width="2" stroke-miterlimit="10" d="M72,48v-8h-8.4
				c-0.52-2.553-1.529-4.925-2.918-7.024l5.945-5.947l-5.656-5.657l-5.947,5.947c-2.099-1.39-4.471-2.399-7.021-2.918V16h-8v8.401
				c-2.553,0.519-4.925,1.528-7.024,2.918l-5.949-5.947l-5.657,5.657l5.947,5.947c-1.39,2.099-2.399,4.471-2.918,7.024H16v8h8.401
				c0.519,2.553,1.528,4.925,2.918,7.023l-5.947,5.947l5.657,5.655l5.947-5.946c2.099,1.391,4.471,2.399,7.024,2.918V72h8v-8.4
				c2.553-0.52,4.925-1.529,7.023-2.918l5.947,5.945l5.653-5.656l-5.944-5.945c1.391-2.101,2.397-4.473,2.918-7.024L72,48L72,48z
				 M44,52c-4.418,0-8-3.582-8-8s3.582-8,8-8s8,3.582,8,8S48.418,52,44,52z"/>
		</g>
	</g>
</g>
<g id="skills_1_">
	<g>
		<g>
			
				<linearGradient id="SVGID_2_" gradientUnits="userSpaceOnUse" x1="928" y1="-756.0005" x2="928" y2="-812.0005" gradientTransform="matrix(1 0 0 -1 -884 -652)">
				<stop  offset="0" style="stop-color:#FFF300"/>
				<stop  offset="1" style="stop-color:#A15000"/>
			</linearGradient>
			<path fill="url(#SVGID_2_)" d="M72,136v-8h-8.4c-0.52-2.553-1.529-4.925-2.918-7.023l5.945-5.947l-5.656-5.655l-5.947,5.944
				c-2.099-1.389-4.471-2.396-7.021-2.918V104h-8v8.4c-2.553,0.52-4.925,1.529-7.024,2.918l-5.947-5.946l-5.657,5.657l5.947,5.947
				c-1.39,2.099-2.399,4.471-2.918,7.021H16v8h8.401c0.519,2.553,1.528,4.925,2.918,7.021l-5.947,5.947l5.657,5.655l5.947-5.946
				c2.099,1.391,4.471,2.399,7.024,2.918V160h8v-8.4c2.553-0.52,4.925-1.529,7.023-2.918l5.947,5.945l5.653-5.656l-5.944-5.945
				c1.391-2.101,2.397-4.473,2.918-7.022L72,136L72,136z M44,140c-4.418,0-8-3.582-8-8s3.582-8,8-8s8,3.582,8,8S48.418,140,44,140z"
				/>
		</g>
		<g>
			<path fill="none" stroke="#000000" stroke-width="2" stroke-miterlimit="10" d="M72,136v-8h-8.4
				c-0.52-2.553-1.529-4.925-2.918-7.023l5.945-5.947l-5.656-5.655l-5.947,5.944c-2.099-1.389-4.471-2.396-7.021-2.918V104h-8v8.4
				c-2.553,0.52-4.925,1.529-7.024,2.918l-5.947-5.946l-5.657,5.657l5.947,5.947c-1.39,2.099-2.399,4.471-2.918,7.021H16v8h8.401
				c0.519,2.553,1.528,4.925,2.918,7.021l-5.947,5.947l5.657,5.655l5.947-5.946c2.099,1.391,4.471,2.399,7.024,2.918V160h8v-8.4
				c2.553-0.52,4.925-1.529,7.023-2.918l5.947,5.945l5.653-5.656l-5.944-5.945c1.391-2.101,2.397-4.473,2.918-7.022L72,136L72,136z
				 M44,140c-4.418,0-8-3.582-8-8s3.582-8,8-8s8,3.582,8,8S48.418,140,44,140z"/>
		</g>
	</g>
</g>
</svg>
