<?xml version="1.0" standalone="no"?>
<!DOCTYPE svg PUBLIC "-//W3C//DTD SVG 20010904//EN"
 "http://www.w3.org/TR/2001/REC-SVG-20010904/DTD/svg10.dtd">
<svg version="1.0" xmlns="http://www.w3.org/2000/svg"
 width="58.000000pt" height="56.000000pt" viewBox="0 0 58.000000 56.000000"
 preserveAspectRatio="xMidYMid meet">
<metadata>
Created by potrace 1.11, written by Peter Selinger 2001-2013
</metadata>
<g transform="translate(0.000000,56.000000) scale(0.100000,-0.100000)"
fill="#000000" stroke="none">
<path d="M22 537 c-17 -18 -22 -35 -22 -81 0 -57 0 -57 28 -54 15 2 28 9 28
16 1 6 2 23 3 36 1 17 8 25 29 29 34 7 35 6 36 -40 l1 -38 53 -3 c45 -3 52 -6
52 -24 0 -20 0 -20 33 -1 50 29 115 29 158 0 l36 -25 -1 102 -1 101 -206 3
c-204 2 -205 2 -227 -21z"/>
<path d="M525 286 c0 -146 3 -268 7 -271 3 -3 15 3 26 15 19 20 20 36 20 248
0 231 -6 272 -41 272 -10 0 -12 -59 -12 -264z"/>
<path d="M18 352 c-16 -3 -18 -19 -18 -153 0 -136 2 -151 20 -169 14 -14 33
-20 68 -20 l47 0 -32 19 c-39 25 -46 53 -45 202 1 121 -2 130 -40 121z"/>
<path d="M163 352 l-42 -3 0 -97 c0 -143 5 -169 37 -179 15 -5 34 -8 43 -6 14
4 14 8 -3 43 -27 55 -27 136 0 191 12 24 18 46 14 49 -4 3 -26 4 -49 2z"/>
<path d="M311 337 c-56 -28 -80 -105 -58 -188 15 -63 70 -94 134 -77 50 13 72
57 69 142 -1 40 -8 81 -16 93 -26 40 -83 54 -129 30z"/>
<path d="M439 53 c-8 -9 -27 -22 -44 -29 l-30 -13 48 -1 c46 0 47 1 47 30 0
35 -2 36 -21 13z"/>
<path d="M220 37 c0 -25 4 -27 38 -27 32 1 35 2 17 12 -11 6 -28 18 -37 26
-17 14 -18 13 -18 -11z"/>
</g>
</svg>
